# xmcd
#
# Track frame offsets: 
#        150
#        16497
#        34641
#        49220
#        67910
#        82840
#        101767
#        116616
#        138919
#        153089
#
# Disc length: 2258 seconds
#
# Revision: 0
# Processed by: cddbd v1.5.2PL0 Copyright (c) Steve Scherf et al.
# Submitted via: ExactAudioCopyFreeDBPlugin 1.0
#
DISCID=7308d00a
DTITLE=Zumba Fitness - Zumba Mega Mix 29
DYEAR=2012
DGENRE=Dance
TTITLE0=Eurostars - Anderlecht Champion (Euro 2000 Ole Ole Ole)
TTITLE1=Amarfis y la Banda de Atakke - El Pollo
TTITLE2=Ceceu Munia - Mete Bronca
TTITLE3=Leonardo Favio - La Subienda
TTITLE4=K-liber4life - Hybrid
TTITLE5=Proyecro Uno - El Party
TTITLE6=Don Omar - Reggaeton Latino
TTITLE7=Sonora Carruseles - De Una Vez Gozando
TTITLE8=Ace of Base - The Sign
TTITLE9=Dido - Thank You
EXTD=
EXTT0=
EXTT1=
EXTT2=
EXTT3=
EXTT4=
EXTT5=
EXTT6=
EXTT7=
EXTT8=
EXTT9=
PLAYORDER=
